<svg id="Capa_1" enable-background="new 0 0 512 512" height="512" viewBox="0 0 512 512" width="512" xmlns="http://www.w3.org/2000/svg"><path id="XMLID_26_" d="m512 294.907v-9.473c0-25.594-19.332-46.745-44.158-49.65v-24.745h3.787c14.5 0 26.298-11.797 26.298-26.298 0-76.056-61.876-137.933-137.933-137.933h-200.952c-76.056 0-137.933 61.876-137.933 137.933 0 14.5 11.797 26.298 26.298 26.298h.361v24.448c-26.538 1.174-47.768 23.124-47.768 49.947v9.473c0 22.839 15.398 42.136 36.353 48.093-9.217 6.571-15.244 17.339-15.244 29.495v14.246c0 43.258 35.193 78.451 78.451 78.451h319.917c43.258 0 78.451-35.193 78.451-78.451v-14.246c0-13.179-7.08-24.733-17.634-31.067 18.544-7.32 31.706-25.407 31.706-46.521zm-352.958-218.098h200.953c58.275 0 105.912 46.423 107.87 104.23h-416.693c1.958-57.808 49.595-104.23 107.87-104.23zm278.8 134.23v24.392h-253.879c-1.963 0-3.914-.023-7.938 2.273l-57.904 36.118-40.353-30.811v-31.972zm30.085 175.702c0 26.716-21.735 48.451-48.451 48.451h-319.916c-26.716 0-48.451-21.735-48.451-48.451v-14.246c0-3.424 2.786-6.236 6.21-6.236-.003 0 .525 0 .525 0l42.886 31.271c15.459 11.272 36.016 13.661 53.648 6.232l28.753-12.113c6.14-2.587 13.183-2.587 19.325 0l34.039 14.34c6.772 2.854 14.041 4.28 21.311 4.279 7.269 0 14.54-1.427 21.31-4.279l34.041-14.34c6.14-2.588 13.183-2.587 19.325 0l28.752 12.113c17.632 7.428 38.188 5.04 53.649-6.232l43.409-31.653s3.44 0 3.426 0c3.424-.026 6.21 3.194 6.21 6.618v14.246zm-388.443-41.832h356.642l-38.92 28.38c-7.011 5.111-16.332 6.193-24.326 2.826l-28.752-12.113c-13.543-5.707-29.078-5.707-42.621 0l-34.041 14.34c-6.141 2.586-13.184 2.586-19.325 0l-34.039-14.34c-6.772-2.854-14.041-4.279-21.311-4.279-7.269 0-14.54 1.427-21.31 4.279l-28.752 12.113c-7.995 3.367-17.316 2.285-24.326-2.826zm402.516-50.002c0 11.029-8.973 20.002-20.003 20.002h-411.994c-11.03 0-20.003-8.973-20.003-20.002v-9.473c0-11.03 8.973-21.274 20.003-21.274h6.03l52.125 39.8c2.677 2.044 5.885 3.078 9.104 3.078 2.746 0 5.5-.752 7.937-2.273l63.059-39.334h273.739c11.03 0 20.003 8.973 20.003 20.003z"/></svg>