<svg id="Capa_1" enable-background="new 0 0 512 512" height="512" viewBox="0 0 512 512" width="512" xmlns="http://www.w3.org/2000/svg"><g><path d="m417.841 0c-48.526 0-88.59 36.915-93.599 84.14h-65.422c-5.523 0-10 4.477-10 10s4.477 10 10 10h134.88l-58.692 58.714c-10.893 6.111-29.044 5.962-39.514-.49-17.221-10.591-44.176-10.589-61.358 0-10.769 6.624-29.663 6.623-40.424.005-11.133-6.861-26.362-9.273-40.392-7.247l-37.419-50.981h53.119c5.523 0 10-4.477 10-10s-4.477-10-10-10h-67.799l-53.765-73.254c-3.269-4.452-9.526-5.414-13.979-2.145-4.452 3.268-5.413 9.526-2.145 13.979l45.08 61.419h-66.412c-4.044 0-7.69 2.436-9.238 6.172-1.548 3.736-.693 8.037 2.166 10.897l76.683 76.708c.1.101.196.204.301.301l64.398 64.419 20.161 47.266c5.43 12.73 12.306 20.62 29.777 20.62h9.672v117.2l-87.349 66.313c-3.419 2.596-4.8 7.085-3.431 11.155s5.184 6.81 9.478 6.81h182.576c4.293 0 8.107-2.74 9.478-6.81 1.37-4.069-.011-8.558-3.43-11.154l-87.322-66.313v-117.201h9.672c17.471 0 24.346-7.89 29.777-20.62l20.16-47.265 64.398-64.418c.105-.097.202-.201.302-.303l10.487-10.49c16.68 13.528 37.328 20.883 59.123 20.883 51.919 0 94.159-42.244 94.159-94.169.002-51.91-42.237-94.141-94.157-94.141zm-325.009 162.854-58.695-58.714h56.956l42.289 57.617c-.349.202-.701.401-1.043.611-10.463 6.448-28.614 6.597-39.507.486zm182.66 329.146h-123.163l61.591-46.758zm-30.518-209.945c-3.275 7.676-4.338 8.467-11.381 8.467h-39.344c-7.043 0-8.107-.792-11.381-8.467l-14.98-35.121h92.066zm25.974-55.12h-114.055l-39.768-39.781c9.332-.676 18.399-3.256 25.698-7.755 10.772-6.625 29.648-6.627 40.404 0 17.211 10.585 44.175 10.584 61.394-.005 10.747-6.622 29.624-6.62 40.389 0 7.304 4.501 16.372 7.083 25.706 7.76zm73.435-142.795c1.757-12.978 6.896-24.89 14.48-34.842l34.838 34.842zm63.458 83.493c-12.733-1.706-24.692-6.649-34.888-14.446l34.888-34.899zm0-97.637-34.835-34.839c9.951-7.583 21.862-12.72 34.835-14.477zm83.475 14.144h-49.335l34.853-34.857c7.592 9.955 12.72 21.878 14.482 34.857zm-63.475-63.447c12.975 1.757 24.894 6.871 34.847 14.452l-34.847 34.851zm0 146.923v-49.331l34.846 34.85c-9.955 7.583-21.868 12.723-34.846 14.481zm48.993-28.619-34.853-34.857h49.335c-1.762 12.981-6.892 24.903-14.482 34.857z"/><path d="m213.921 104.14h.057c5.523 0 9.972-4.477 9.972-10s-4.505-10-10.028-10-10 4.477-10 10 4.476 10 9.999 10z"/></g></svg>