<?xml version="1.0" encoding="iso-8859-1"?>
<!-- Generator: Adobe Illustrator 19.0.0, SVG Export Plug-In . SVG Version: 6.00 Build 0)  -->
<svg version="1.1" id="Capa_1" xmlns="http://www.w3.org/2000/svg" xmlns:xlink="http://www.w3.org/1999/xlink" x="0px" y="0px"
	 viewBox="0 0 480.176 480.176" style="enable-background:new 0 0 480.176 480.176;" xml:space="preserve">
<g>
	<g>
		<path d="M240.192,112.076c-13.255,0-24,10.745-24,24s10.745,24,24,24s24-10.745,24-24S253.447,112.076,240.192,112.076z
			 M240.192,144.076c-4.418,0-8-3.582-8-8s3.582-8,8-8s8,3.582,8,8S244.61,144.076,240.192,144.076z"/>
	</g>
</g>
<g>
	<g>
		<path d="M467.392,140.532c-1.008-2.396-3.117-4.154-5.656-4.712c-2.547-0.563-5.208,0.161-7.12,1.936
			c-11.983,11.12-30.712,10.419-41.831-1.564c-4.421-4.765-7.151-10.853-7.768-17.324c-0.422-4.398-4.33-7.621-8.728-7.199
			c-0.936,0.09-1.848,0.344-2.696,0.751c-14.577,7.399-32.393,1.58-39.792-12.998c-6.909-13.613-2.333-30.247,10.568-38.41
			c3.682-2.443,4.686-7.408,2.243-11.089c-1.043-1.572-2.608-2.725-4.419-3.255c-84.958-24.849-174.296,22.258-201.784,106.4
			C81.396,144.014,10.004,200.725,0.95,279.737c-9.055,79.012,47.657,150.404,126.669,159.458
			c59.531,6.822,117.064-23.933,144.461-77.223c87.239,24.353,177.703-26.626,202.056-113.865
			C484.073,212.513,481.696,174.606,467.392,140.532z M144.192,424.076c-70.692,0-128-57.308-128-128s57.308-128,128-128
			s128,57.308,128,128C272.108,366.734,214.85,423.992,144.192,424.076z M363.985,344.131c-15.387,5.254-31.534,7.938-47.793,7.945
			c-12.67-0.024-25.285-1.672-37.536-4.904c28.405-73.952-8.519-156.929-82.471-185.334c-6.452-2.478-13.075-4.487-19.817-6.01
			c23.93-69.55,95.342-110.935,167.584-97.12c-14.929,20.315-10.564,48.886,9.751,63.815c7.841,5.762,17.318,8.868,27.049,8.865
			c3.502,0.003,6.992-0.402,10.4-1.208c7.8,23.946,33.535,37.034,57.481,29.234c2.644-0.861,5.203-1.963,7.647-3.29
			C482.71,233.527,441.388,317.701,363.985,344.131z"/>
	</g>
</g>
<g>
	<g>
		<path d="M386.12,239.108c-19.277-0.018-34.918,15.595-34.936,34.872c-0.018,19.277,15.595,34.918,34.872,34.936
			c19.277,0.018,34.918-15.595,34.936-34.872c0-0.013,0-0.027,0-0.04C420.97,254.75,405.374,239.143,386.12,239.108z
			 M404.992,274.004c-0.026,10.412-8.46,18.846-18.872,18.872v0.032c-10.44,0.018-18.918-8.432-18.936-18.872
			c-0.018-10.44,8.432-18.918,18.872-18.936c10.44-0.018,18.918,8.432,18.936,18.872
			C404.992,273.983,404.992,273.993,404.992,274.004z"/>
	</g>
</g>
<g>
	<g>
		<path d="M353.304,171.46c-10.719-10.993-28.319-11.215-39.312-0.496c-0.167,0.163-0.333,0.329-0.496,0.496l-17.648,17.648
			c-10.854,10.856-10.852,28.455,0.004,39.308c10.856,10.853,28.455,10.852,39.308-0.004l17.648-17.64
			C363.801,200.053,364.023,182.453,353.304,171.46z M341.849,199.107c-0.115,0.12-0.233,0.238-0.353,0.353v-0.008l-17.648,17.656
			c-4.67,4.456-12.018,4.456-16.688,0c-4.591-4.615-4.591-12.073,0-16.688l17.648-17.64c4.509-4.706,11.978-4.865,16.684-0.357
			C346.197,186.932,346.357,194.402,341.849,199.107z"/>
	</g>
</g>
<g>
	<g>
		<path d="M95.848,292.42l-16-16c-10.858-10.856-28.46-10.854-39.316,0.004c-10.856,10.858-10.854,28.46,0.004,39.316l16,16
			c10.858,10.856,28.46,10.854,39.316-0.004C106.708,320.878,106.706,303.276,95.848,292.42z M84.577,320.371
			c-0.014,0.014-0.027,0.027-0.041,0.041v0.008c-4.61,4.604-12.078,4.604-16.688,0l-16-16c-4.509-4.706-4.349-12.175,0.356-16.684
			c4.566-4.375,11.768-4.373,16.332,0.004l16,16C89.14,308.321,89.158,315.767,84.577,320.371z"/>
	</g>
</g>
<g>
	<g>
		<path d="M120.192,360.076c-13.255,0-24,10.745-24,24s10.745,24,24,24s24-10.745,24-24S133.447,360.076,120.192,360.076z
			 M120.192,392.076c-4.418,0-8-3.582-8-8s3.582-8,8-8s8,3.582,8,8S124.61,392.076,120.192,392.076z"/>
	</g>
</g>
<g>
	<g>
		<path d="M200.192,216.076c-13.255,0-24,10.745-24,24s10.745,24,24,24s24-10.745,24-24S213.447,216.076,200.192,216.076z
			 M200.192,248.076c-4.418,0-8-3.582-8-8s3.582-8,8-8s8,3.582,8,8S204.61,248.076,200.192,248.076z"/>
	</g>
</g>
<g>
	<g>
		<path d="M437.848,210.42l-16-16c-3.178-3.07-8.242-2.982-11.312,0.196c-2.994,3.1-2.994,8.015,0,11.116l16,16
			c3.178,3.069,8.242,2.982,11.312-0.196C440.842,218.435,440.842,213.52,437.848,210.42z"/>
	</g>
</g>
<g>
	<g>
		<path d="M325.652,306.42c-3.1-2.995-8.016-2.995-11.116,0l-16,16c-3.178,3.07-3.266,8.134-0.196,11.312
			c3.07,3.178,8.134,3.266,11.312,0.196c0.066-0.064,0.132-0.13,0.196-0.196l16-16C328.918,314.554,328.83,309.49,325.652,306.42z"
			/>
	</g>
</g>
<g>
	<g>
		<path d="M157.652,274.42c-3.1-2.994-8.015-2.994-11.116,0l-16,16c-3.178,3.069-3.266,8.134-0.196,11.312
			c3.069,3.178,8.134,3.266,11.312,0.196c0.067-0.064,0.132-0.13,0.196-0.196l16-16C160.917,282.554,160.829,277.49,157.652,274.42z
			"/>
	</g>
</g>
<g>
	<g>
		<path d="M253.848,298.42l-16-16c-3.178-3.07-8.242-2.982-11.312,0.196c-2.994,3.1-2.994,8.015,0,11.116l16,16
			c3.178,3.07,8.242,2.982,11.312-0.196C256.843,306.436,256.843,301.52,253.848,298.42z"/>
	</g>
</g>
<g>
	<g>
		<path d="M318.848,123.636l-16-24c-2.452-3.676-7.42-4.668-11.096-2.216c-3.676,2.452-4.668,7.42-2.216,11.096l16,24
			c2.452,3.676,7.42,4.668,11.096,2.216S321.3,127.312,318.848,123.636z"/>
	</g>
</g>
<g>
	<g>
		<path d="M221.848,362.42l-40-40c-3.125-3.124-8.19-3.123-11.314,0.002c-1.499,1.5-2.342,3.534-2.342,5.654v40c0,4.418,3.582,8,8,8
			h40c4.418-0.001,7.999-3.583,7.998-8.002C224.19,365.954,223.347,363.92,221.848,362.42z M184.192,360.076v-12.688l12.688,12.688
			H184.192z"/>
	</g>
</g>
<g>
	<g>
		<path d="M133.846,202.418c-1.5-1.499-3.534-2.342-5.654-2.342h-40c-4.418,0-8,3.582-8,8v40c-0.001,3.235,1.947,6.153,4.936,7.392
			c2.99,1.239,6.432,0.553,8.72-1.736l40-40C136.972,210.607,136.971,205.542,133.846,202.418z M96.192,228.764v-12.688h12.688
			L96.192,228.764z"/>
	</g>
</g>
<g>
</g>
<g>
</g>
<g>
</g>
<g>
</g>
<g>
</g>
<g>
</g>
<g>
</g>
<g>
</g>
<g>
</g>
<g>
</g>
<g>
</g>
<g>
</g>
<g>
</g>
<g>
</g>
<g>
</g>
</svg>
