<?xml version="1.0"?>
<svg xmlns="http://www.w3.org/2000/svg" id="Outline" viewBox="0 0 512 512" width="512" height="512"><path d="M488,32H310.638a23.989,23.989,0,0,0-38.622-9.883A24.006,24.006,0,0,0,233.376,32H214.638a24.005,24.005,0,0,0-45.262,0H128a8,8,0,0,0-8,8v64a8,8,0,0,0,8,8h40V227.324A88.318,88.318,0,0,0,144,224a87.378,87.378,0,0,0-27.257,4.368l-28.46-41.585a40.046,40.046,0,0,0-55.6-10.424l-13.2,9.04a8,8,0,0,0-2.081,11.12l49.734,72.662A87.084,87.084,0,0,0,59.342,288H48a8,8,0,0,0-8,8v32c0,74.99,61.009,136,136,136h16v8a24.028,24.028,0,0,0,24,24h80a24.028,24.028,0,0,0,24-24v-8h16c74.991,0,136-61.01,136-136V296a8,8,0,0,0-8-8H452.658A88.04,88.04,0,0,0,344,227.324V112H488a8,8,0,0,0,8-8V40A8,8,0,0,0,488,32ZM312,64V48H480V64Zm27.432,220.02A39.691,39.691,0,0,1,368,272a40.092,40.092,0,0,1,32,16H340.658Q340.088,285.989,339.432,284.02ZM306.6,288a56.006,56.006,0,0,0-101.2,0H188.113a72.007,72.007,0,0,1,135.774,0ZM288,288H224a40,40,0,0,1,64,0Zm-116.66,0H112a39.965,39.965,0,0,1,60.566-3.967Q171.907,286,171.342,288ZM232,64H216V48h16Zm0,16V227.373a87.992,87.992,0,0,0-16,6.3V80Zm56-48a7.977,7.977,0,0,1,8,8V233.675a87.992,87.992,0,0,0-16-6.3V40A8.009,8.009,0,0,1,288,32Zm-32,0a7.977,7.977,0,0,1,8,8V224.371c-2.64-.242-5.308-.371-8-.371s-5.36.129-8,.371V40A8.009,8.009,0,0,1,256,32ZM136,48h32V64H136Zm0,48V80h32V96Zm48-56a8,8,0,1,1,16,0V244.136a87.711,87.711,0,0,0-16-10.54ZM35.119,194.081l6.6-4.518a24.028,24.028,0,0,1,33.361,6.255L101.8,234.86a88.822,88.822,0,0,0-24.886,20.282ZM144,240a71.513,71.513,0,0,1,44.615,15.5,87.968,87.968,0,0,0-9.185,13.175A55.958,55.958,0,0,0,93.4,288H76.113A72.245,72.245,0,0,1,144,240ZM304,472a8.009,8.009,0,0,1-8,8H216a8.009,8.009,0,0,1-8-8v-8h96Zm32-24H176A120.151,120.151,0,0,1,56.273,336H455.727A120.151,120.151,0,0,1,336,448ZM456,320H56V304H456Zm-20.113-32H418.6a56,56,0,0,0-86.045-19.356,87.963,87.963,0,0,0-9.17-13.149A71.513,71.513,0,0,1,368,240,72.245,72.245,0,0,1,435.887,288ZM312,244.136V80h16V233.6A87.711,87.711,0,0,0,312,244.136ZM344,96V80H480V96Z"/></svg>
