<svg id="Capa_1" enable-background="new 0 0 513.641 513.641" height="512" viewBox="0 0 513.641 513.641" width="512" xmlns="http://www.w3.org/2000/svg"><g><path d="m467.721 230.222c-5.751-7.806-17.951 1.342-11.964 9.047 27.446 36.299 41.953 79.609 41.953 125.245.245 29.555-43.189 34.958-50.393 6.628 34.934-5.882 43.9-57.021 12.82-74.43 13.1-30.551-18.228-64.532-49.756-53.85-6.42-9.815-13.642-19.184-21.657-28.007 7.869-5.849 13.337-14.347 15.394-23.986 11.912 7.855 23.02 16.917 33.117 27.07 1.466 1.474 3.392 2.211 5.318 2.211 27.405-6.873-30.314-41.302-38.59-47.07-4.833-23.352-32.089-38.071-54.601-28.559-9.672-16.467-31.824-24.03-49.7-16.566-10.744-18.505-36.992-25.206-55.376-13.758-24.625-15.45-59.239 2.344-61.155 31.105-6.176 1.126-12.285 2.504-18.31 4.14-25.693-34.873-82.844-7.624-71.79 34.401-5.376 3.902-10.601 8.054-15.657 12.461-38.871-21.794-79.761 29.257-50.057 62.411-19.448 39.123-56.659 139.57 14.023 146.434.003-.001 125.036-.001 125.036-.001 9.695.133 9.757-15.137-.001-15h-15.121c94.642-53.82 50.172-53.618 144.643 0h-100.304c-4.142 0-7.5 3.357-7.5 7.5s3.358 7.5 7.5 7.5h276.483c79.744-8.574 25.514-137.04-4.355-174.926zm-244.145-106.707c10.217-1.794 17.306 11.403 25.401 5.629 13.101-11.094 34.941-4.812 40.206 11.52 1.461 4.531 7.371 6.498 11.256 3.745 13.308-9.374 33.416-2.681 38.444 12.821.768 2.189 2.507 3.9 4.709 4.633 7.307 1.438 12.995-6.508 20.802-5.214 25.026-.834 35.153 34.761 13.712 47.286-47.408-46.02-113.67-68.371-179.418-60.906 2.75-11.188 12.863-19.514 24.888-19.514zm-91.116 24.849c6.139 0 11.947 2.204 16.496 6.03-14.692 5.206-28.794 11.97-42.115 20.192-.371-14.332 11.289-26.242 25.619-26.222zm-74.55 57.984c2.593 0 5.117.398 7.529 1.137-11.358 11.435-21.324 23.885-29.819 37.146-9.831-16.37 3.099-38.771 22.29-38.283zm267.145 183.799c-128.751-74.168-74.449-73.892-202.956 0h-37.11c182.097-102.984 95.37-102.648 277.177 0zm66.266 0c-214.636-122.941-121.238-122.505-335.49 0-19.32 1.614-39.077-2.285-40.122-25.634 4.892-273.198 410.885-273.118 415.733.01 0 9.703 3.429 18.626 9.134 25.624zm27.209-133.805c15.301-2.452 29.613 9.829 29.479 25.339 1.29 7.805-6.651 13.501-5.217 20.801.734 2.202 2.445 3.942 4.635 4.709 23.248 7.596 22.101 42.455-1.162 48.752-1.329-35.39-10.876-69.323-27.735-99.601z"/><path d="m124.177 224.481c-13.271 0-24.067 10.796-24.067 24.066-2.534 16.23 27.887 35.358 31.568 16.567-.001-4.143-3.359-7.5-7.501-7.5-11.759.164-11.762-18.298.001-18.133 4.998 0 9.066 4.067 9.066 9.066-.151 9.732 15.149 9.73 15-.001-.001-13.269-10.797-24.065-24.067-24.065z"/><path d="m190.443 224.481h-16.567c-9.726-.143-9.734 15.144.001 15-.001 0 16.566 0 16.566 0 9.726.143 9.735-15.143 0-15z"/><path d="m331.26 274.181h-16.566c-9.726-.143-9.734 15.144.001 15-.001 0 16.566 0 16.566 0 9.725.142 9.733-15.144-.001-15z"/><path d="m91.043 274.181h-16.567c-9.726-.143-9.735 15.144.001 15-.001 0 16.566 0 16.566 0 9.726.142 9.735-15.144 0-15z"/></g></svg>